<svg width="116" height="26" viewBox="0 0 116 26" fill="none" xmlns="http://www.w3.org/2000/svg">
<path d="M104.355 16.9922H108.267C109.387 16.9922 109.947 17.5202 109.947 18.5762V19.1762C109.947 19.4482 109.819 19.5842 109.563 19.5842H101.859C101.651 19.5842 101.547 19.4802 101.547 19.2722V6.55223C101.547 6.34423 101.651 6.24023 101.859 6.24023H108.075C109.195 6.24023 109.755 6.77624 109.755 7.84824V8.44824C109.755 8.72024 109.627 8.85624 109.371 8.85624H104.355V11.5682H107.595C108.715 11.5682 109.275 12.1042 109.275 13.1762V13.7762C109.275 14.0322 109.147 14.1602 108.891 14.1602H104.355V16.9922Z" fill="white"/>
<path d="M96.7321 16.56V14.664H95.4361C94.3161 14.664 93.7561 14.136 93.7561 13.08V12.48C93.7561 12.208 93.8841 12.072 94.1401 12.072H99.0361C99.2921 12.072 99.4201 12.208 99.4201 12.48V17.4C99.4201 17.64 99.3801 17.832 99.3001 17.976C99.2361 18.12 99.0921 18.272 98.8681 18.432C98.1321 18.96 97.4281 19.328 96.7561 19.536C96.0841 19.728 95.3161 19.824 94.4521 19.824C93.2841 19.824 92.1961 19.6 91.1881 19.152C90.1801 18.704 89.3641 17.976 88.7401 16.968C88.1321 15.944 87.8281 14.576 87.8281 12.864C87.8281 11.44 88.1001 10.216 88.6441 9.192C89.1881 8.168 89.9641 7.384 90.9721 6.84C91.9801 6.28 93.1801 6 94.5721 6C95.2281 6 95.8041 6.04 96.3001 6.12C96.7961 6.184 97.2681 6.296 97.7161 6.456C98.2761 6.648 98.6201 6.912 98.7481 7.248C98.8921 7.584 98.9001 8.008 98.7721 8.52L98.6041 9.192C98.5561 9.4 98.4521 9.504 98.2921 9.504C98.1961 9.504 98.0681 9.464 97.9081 9.384C97.4121 9.16 96.9081 8.984 96.3961 8.856C95.8841 8.728 95.3561 8.664 94.8121 8.664C93.5801 8.664 92.6041 9.008 91.8841 9.696C91.1641 10.368 90.8041 11.488 90.8041 13.056C90.8041 14.368 91.1161 15.384 91.7401 16.104C92.3801 16.824 93.2681 17.184 94.4041 17.184C94.8681 17.184 95.2761 17.136 95.6281 17.04C95.9801 16.944 96.3481 16.784 96.7321 16.56Z" fill="white"/>
<path d="M78.6666 16.5122L77.7306 19.2722C77.6666 19.4802 77.5466 19.5842 77.3706 19.5842H75.1146C75.0186 19.5842 74.9546 19.5522 74.9226 19.4882C74.8906 19.4082 74.8826 19.3362 74.8986 19.2722L79.3626 6.50424C79.4266 6.32824 79.5466 6.24023 79.7226 6.24023H80.7786C81.4506 6.24023 81.9706 6.38424 82.3386 6.67224C82.7226 6.96024 83.0666 7.53624 83.3706 8.40024L87.2586 19.2722C87.2906 19.3362 87.2826 19.4082 87.2346 19.4882C87.2026 19.5522 87.1306 19.5842 87.0186 19.5842H84.7146C84.4906 19.5842 84.3386 19.4802 84.2586 19.2722L83.3226 16.5122H78.6666ZM79.5066 14.1122H82.5066L80.9946 9.62424L79.5066 14.1122Z" fill="white"/>
<path d="M66.7753 15.2882L69.0793 6.55223C69.1273 6.34423 69.2473 6.24023 69.4393 6.24023H71.3833C71.9273 6.24023 72.3673 6.39223 72.7033 6.69624C73.0553 7.00024 73.2393 7.39224 73.2553 7.87224L73.8793 19.2722C73.8793 19.4802 73.7993 19.5842 73.6393 19.5842H71.4073C71.2153 19.5842 71.1193 19.4802 71.1193 19.2722L70.6393 10.2962L68.2153 19.2722C68.1673 19.4802 68.0393 19.5842 67.8313 19.5842H65.6713C65.5113 19.5842 65.3993 19.4802 65.3353 19.2722L62.9593 10.2722L62.4793 19.2722C62.4793 19.4802 62.3913 19.5842 62.2153 19.5842H59.9593C59.7833 19.5842 59.6953 19.4802 59.6953 19.2722L60.4393 6.55223C60.4393 6.34423 60.5353 6.24023 60.7273 6.24023H62.6233C63.1673 6.24023 63.6233 6.32024 63.9913 6.48024C64.3753 6.64024 64.6313 6.97624 64.7593 7.48824L66.7753 15.2882Z" fill="white"/>
<path d="M54.8594 19.2722V6.55223C54.8594 6.34423 54.9634 6.24023 55.1714 6.24023H55.4114C56.1634 6.24023 56.7234 6.42423 57.0914 6.79223C57.4754 7.14423 57.6674 7.76824 57.6674 8.66424V19.2722C57.6674 19.4802 57.5634 19.5842 57.3554 19.5842H55.1714C54.9634 19.5842 54.8594 19.4802 54.8594 19.2722Z" fill="white"/>
<path d="M43.2689 16.9922H47.1809C48.3009 16.9922 48.8609 17.5202 48.8609 18.5762V19.1762C48.8609 19.4482 48.7329 19.5842 48.4769 19.5842H40.7729C40.5649 19.5842 40.4609 19.4802 40.4609 19.2722V6.55223C40.4609 6.34423 40.5649 6.24023 40.7729 6.24023H46.9889C48.1089 6.24023 48.6689 6.77624 48.6689 7.84824V8.44824C48.6689 8.72024 48.5409 8.85624 48.2849 8.85624H43.2689V11.5682H46.5089C47.6289 11.5682 48.1889 12.1042 48.1889 13.1762V13.7762C48.1889 14.0322 48.0609 14.1602 47.8049 14.1602H43.2689V16.9922Z" fill="white"/>
<path d="M27.3432 19.5842C27.1352 19.5842 27.0312 19.4802 27.0312 19.2722V6.55223C27.0312 6.34423 27.1352 6.24023 27.3432 6.24023H31.3512C32.1992 6.24023 33.0312 6.34423 33.8472 6.55223C34.6793 6.74424 35.4313 7.08824 36.1033 7.58424C36.7753 8.06424 37.3112 8.72024 37.7112 9.55224C38.1112 10.3842 38.3113 11.4402 38.3113 12.7202C38.3113 15.1362 37.6712 16.8882 36.3912 17.9762C35.1272 19.0482 33.3833 19.5842 31.1593 19.5842H27.3432ZM29.8392 16.9922H31.4472C32.6792 16.9922 33.6392 16.6402 34.3272 15.9362C35.0312 15.2322 35.3832 14.1922 35.3832 12.8162C35.3832 11.3762 35.0312 10.3602 34.3272 9.76824C33.6232 9.16024 32.6312 8.85624 31.3512 8.85624H29.8392V16.9922Z" fill="white"/>
<path d="M19.4531 19.7154C19.4531 19.5257 19.6566 19.4203 20.0637 19.3992C20.4764 19.3834 20.8834 19.2912 21.2847 19.1225V15.4387C21.2847 14.3373 21.8007 13.5652 22.8325 13.1225C23.188 12.9644 23.6179 12.8643 24.1224 12.8221C22.6491 12.6957 21.7577 12.2187 21.4481 11.3913C21.3392 11.1014 21.2847 10.7563 21.2847 10.3557V6.83004C20.8834 6.66667 20.5366 6.59289 20.2442 6.6087C19.7168 6.63505 19.4531 6.52964 19.4531 6.29249C19.4531 6.21871 19.499 6.15283 19.5907 6.09486C19.6824 6.03162 19.82 6 20.0035 6C21.4022 6 22.5516 6.54545 23.4517 7.63636C24.3173 8.68511 24.8017 10.0422 24.9049 11.7075C24.9164 11.9974 24.9622 12.1845 25.0425 12.2688C25.1743 12.4058 25.3435 12.4822 25.5498 12.498C25.8938 12.5244 26.0658 12.6219 26.0658 12.7905C26.0658 12.9592 25.9253 13.0593 25.6444 13.0909C25.3693 13.1173 25.1801 13.1963 25.0769 13.3281C24.9794 13.4545 24.9192 13.6601 24.8963 13.9447C24.7645 15.7312 24.1998 17.2042 23.2023 18.3636C22.7494 18.8906 22.2449 19.2938 21.6889 19.5731C21.1328 19.8577 20.571 20 20.0035 20C19.6366 20 19.4531 19.9051 19.4531 19.7154Z" fill="url(#paint0_linear_1130_106)"/>
<path d="M17.6751 6.29249C17.6751 6.52964 17.443 6.63768 16.9786 6.6166C16.6232 6.59552 16.2448 6.66667 15.8436 6.83004V10.3557C15.8436 11.1515 15.6171 11.7418 15.1642 12.1265C14.7171 12.5059 13.9976 12.7378 13.0059 12.8221C13.9575 12.9012 14.6827 13.1937 15.1814 13.6996C15.6228 14.1476 15.8436 14.7273 15.8436 15.4387V19.1225C16.2391 19.2912 16.5974 19.3808 16.9184 19.3913C17.2452 19.4071 17.4516 19.4387 17.5376 19.4862C17.6293 19.5389 17.6751 19.61 17.6751 19.6996C17.6751 19.8999 17.4917 20 17.1248 20C16.5573 20 15.9955 19.8577 15.4394 19.5731C14.8833 19.2938 14.3789 18.8906 13.926 18.3636C12.9285 17.2042 12.3638 15.7312 12.232 13.9447C12.209 13.6601 12.146 13.4545 12.0428 13.3281C11.9453 13.1963 11.7934 13.1199 11.587 13.0988C11.2373 13.0619 11.0625 12.9592 11.0625 12.7905C11.0625 12.6219 11.203 12.527 11.4839 12.5059C11.7533 12.4848 11.9281 12.4321 12.0084 12.3478C12.1288 12.2213 12.2004 12.0079 12.2234 11.7075C12.3266 10.0422 12.8138 8.68511 13.6852 7.63636C14.5795 6.54545 15.726 6 17.1248 6C17.3083 6 17.4458 6.03162 17.5376 6.09486C17.6293 6.15283 17.6751 6.21871 17.6751 6.29249Z" fill="url(#paint1_linear_1130_106)"/>
<path d="M6.288 19.824C5.024 19.824 3.92 19.552 2.976 19.008C2.032 18.448 1.296 17.656 0.768 16.632C0.256 15.608 0 14.392 0 12.984C0 11.528 0.272 10.28 0.816 9.24C1.376 8.2 2.144 7.4 3.12 6.84C4.096 6.28 5.2 6 6.432 6C7.088 6 7.648 6.048 8.112 6.144C8.576 6.224 9.032 6.352 9.48 6.528C10.024 6.736 10.36 7.008 10.488 7.344C10.616 7.68 10.616 8.104 10.488 8.616L10.32 9.312C10.272 9.52 10.168 9.624 10.008 9.624C9.912 9.624 9.784 9.584 9.624 9.504C9.144 9.264 8.68 9.072 8.232 8.928C7.8 8.768 7.232 8.688 6.528 8.688C5.472 8.688 4.6 9.032 3.912 9.72C3.24 10.408 2.904 11.496 2.904 12.984C2.904 14.392 3.256 15.44 3.96 16.128C4.68 16.816 5.576 17.16 6.648 17.16C7.208 17.16 7.712 17.08 8.16 16.92C8.608 16.744 8.992 16.544 9.312 16.32C9.648 16.096 9.904 15.904 10.08 15.744C10.176 15.648 10.256 15.592 10.32 15.576C10.4 15.544 10.464 15.528 10.512 15.528C10.8 15.528 10.944 15.744 10.944 16.176C10.944 16.48 10.864 16.84 10.704 17.256C10.544 17.672 10.28 18.08 9.912 18.48C9.56 18.864 9.08 19.184 8.472 19.44C7.88 19.696 7.152 19.824 6.288 19.824Z" fill="white"/>
<path fill-rule="evenodd" clip-rule="evenodd" d="M51.5 4.2C52.4389 4.2 53.2 3.43888 53.2 2.5C53.2 1.56112 52.4389 0.8 51.5 0.8C50.5611 0.8 49.8 1.56112 49.8 2.5C49.8 3.43888 50.5611 4.2 51.5 4.2ZM49 23.5C49 22.2905 49.8589 21.2816 51 21.05V4.94999C49.8589 4.71836 49 3.70948 49 2.5C49 1.11929 50.1193 0 51.5 0C52.7095 0 53.7184 0.85888 53.95 2H111.05C111.282 0.85888 112.291 0 113.5 0C114.881 0 116 1.11929 116 2.5C116 3.70948 115.141 4.71836 114 4.94999V21.05C115.141 21.2816 116 22.2905 116 23.5C116 24.8807 114.881 26 113.5 26C112.291 26 111.282 25.1411 111.05 24H53.95C53.7184 25.1411 52.7095 26 51.5 26C50.1193 26 49 24.8807 49 23.5ZM111.05 23C111.249 22.0204 112.02 21.2488 113 21.05V4.94999C112.02 4.75115 111.249 3.97957 111.05 3H53.95C53.7511 3.97957 52.9796 4.75115 52 4.94999V21.05C52.9796 21.2488 53.7511 22.0204 53.95 23H111.05ZM115.2 2.5C115.2 3.43888 114.439 4.2 113.5 4.2C112.561 4.2 111.8 3.43888 111.8 2.5C111.8 1.56112 112.561 0.8 113.5 0.8C114.439 0.8 115.2 1.56112 115.2 2.5ZM51.5 25.2C52.4389 25.2 53.2 24.4389 53.2 23.5C53.2 22.5611 52.4389 21.8 51.5 21.8C50.5611 21.8 49.8 22.5611 49.8 23.5C49.8 24.4389 50.5611 25.2 51.5 25.2ZM115.2 23.5C115.2 24.4389 114.439 25.2 113.5 25.2C112.561 25.2 111.8 24.4389 111.8 23.5C111.8 22.5611 112.561 21.8 113.5 21.8C114.439 21.8 115.2 22.5611 115.2 23.5Z" fill="url(#paint2_linear_1130_106)"/>
<defs>
<linearGradient id="paint0_linear_1130_106" x1="22.7594" y1="6" x2="22.7594" y2="20" gradientUnits="userSpaceOnUse">
<stop stop-color="#FF5021"/>
<stop offset="1" stop-color="#4CEDFF"/>
</linearGradient>
<linearGradient id="paint1_linear_1130_106" x1="14.3688" y1="6" x2="14.3688" y2="20" gradientUnits="userSpaceOnUse">
<stop stop-color="#6D41FF"/>
<stop offset="1" stop-color="#E3FF55"/>
</linearGradient>
<linearGradient id="paint2_linear_1130_106" x1="51" y1="2.5" x2="82.5" y2="26" gradientUnits="userSpaceOnUse">
<stop stop-color="#EF5D34"/>
<stop offset="1" stop-color="#E8FF4F"/>
</linearGradient>
</defs>
</svg>
